<svg xmlns="http://www.w3.org/2000/svg" width="125" height="125" viewBox="0 0 125 125"><defs><style>.a{fill:#0068b5;}.b{fill:#00c7fd;}.c{fill:#fff;}</style></defs><path class="a" d="M0,0V125H125V0Z"/><rect class="b" width="6.582" height="6.582" transform="translate(19.797 42.92)"/><path class="c" d="M17.74,59.174V35.5H11.5V59.174Zm41.347.24V53.608a15.552,15.552,0,0,1-2.257-.146,2.59,2.59,0,0,1-1.464-.648,2.552,2.552,0,0,1-.649-1.415,14.529,14.529,0,0,1-.146-2.286V40.83h4.516V35.5H54.571V26.271H48.334V49.16a20.354,20.354,0,0,0,.5,4.884A6.76,6.76,0,0,0,50.5,57.185a6.658,6.658,0,0,0,3.045,1.708,18.406,18.406,0,0,0,4.759.521Zm35.752-.24V24.445H88.6V59.174ZM42.32,37.827a9.446,9.446,0,0,0-7.255-2.811,9.16,9.16,0,0,0-4.094.911,8.819,8.819,0,0,0-3.1,2.526l-.34.437,0-.394v-3H21.377V59.174h6.2V46.56l.007.875c0-.144,0-.286.005-.425A7.109,7.109,0,0,1,29.235,42.1a5.378,5.378,0,0,1,3.958-1.682,5.043,5.043,0,0,1,4.083,1.637,6.971,6.971,0,0,1,1.356,4.54l0,0v.061h0V59.174h6.3V45.733C44.929,42.358,44.051,39.7,42.32,37.827Zm43.031,9.46a12.734,12.734,0,0,0-.9-4.788,12.261,12.261,0,0,0-2.512-3.91,11.466,11.466,0,0,0-3.858-2.627,12.7,12.7,0,0,0-4.953-.946,12.065,12.065,0,0,0-4.809.97,12.271,12.271,0,0,0-6.54,6.54,12.059,12.059,0,0,0-.97,4.809,12.6,12.6,0,0,0,.924,4.811,11.715,11.715,0,0,0,6.512,6.536,13.1,13.1,0,0,0,5.075.972,13.437,13.437,0,0,0,10.535-4.648l-4.49-3.42a8.235,8.235,0,0,1-6,2.646,7.14,7.14,0,0,1-4.306-1.21,5.988,5.988,0,0,1-2.25-3.286l-.063-.22h18.6ZM66.8,45.115c0-1.734,1.99-4.76,6.279-4.766s6.285,3.024,6.285,4.757Z" transform="translate(8.467 17.994)"/><path class="c" d="M65.477,43.329A2.346,2.346,0,0,0,64.248,42.1a2.3,2.3,0,0,0-1.793,0,2.387,2.387,0,0,0-.733.5,2.347,2.347,0,0,0-.5.733,2.281,2.281,0,0,0,0,1.8,2.346,2.346,0,0,0,1.229,1.229,2.3,2.3,0,0,0,1.793,0,2.346,2.346,0,0,0,1.229-1.229,2.281,2.281,0,0,0,0-1.8ZM65.1,44.967a1.937,1.937,0,0,1-.406.6,1.916,1.916,0,0,1-.606.406,1.9,1.9,0,0,1-1.477,0,1.889,1.889,0,0,1-1.012-1.01,1.9,1.9,0,0,1,0-1.477,1.885,1.885,0,0,1,1.012-1.012,1.9,1.9,0,0,1,1.477,0A1.885,1.885,0,0,1,65.1,43.489a1.9,1.9,0,0,1,0,1.477Zm-1.316-.554a.737.737,0,0,0,.448-.2.692.692,0,0,0,.179-.521.756.756,0,0,0-.227-.59,1.032,1.032,0,0,0-.7-.2H62.463v2.639h.484v-1.08H63.3l.658,1.08h.509Zm-.262-.382c-.075.007-.148.01-.222.01h-.354V43.3H63.3c.075,0,.148,0,.222.007a.58.58,0,0,1,.2.043.357.357,0,0,1,.146.111.406.406,0,0,1,0,.41.361.361,0,0,1-.146.113A.669.669,0,0,1,63.524,44.031Z" transform="translate(44.933 30.856)"/></svg>